<svg id="Layer_1" data-name="Layer 1" xmlns="http://www.w3.org/2000/svg" viewBox="0 0 310.23 80.9"><defs><style>.cls-1{fill:#2e2e2f;}</style></defs><path class="cls-1" d="M30.44,59.76a7.64,7.64,0,0,0,2.94,1.57l.11-.31h0l-.1.32h0a1.66,1.66,0,0,0,.49.07,1.25,1.25,0,0,0,1.12-.6,1.21,1.21,0,0,0-.35-1.53,8.72,8.72,0,0,1-2.43-4.11c-1.45-7.53.77-17.89,5.3-25,.09-.14.18-.24.27-.24a.49.49,0,0,1,.3.22,28.52,28.52,0,0,1,3.66,23.26,1.19,1.19,0,0,0,.6,1.38c.56.29,1.47.22,2.35-.86a9.27,9.27,0,0,0,.61-.84l.33-.63a26.61,26.61,0,0,0,3.2-8.14c1.78-7.17.89-14.43-2.7-22.17a47.41,47.41,0,0,0-6.53-10.89C38.72,10,37.84,8.84,37,7.78A3.39,3.39,0,0,0,35,6.3a.62.62,0,0,0-.31,0,2.1,2.1,0,0,0-1.55.55A3.6,3.6,0,0,0,32,9.42c0,.45,0,.88,0,1.4-.05,2.91-.11,6.2-2.7,13.73-.32.94-.68,1.94-1.07,3l0,.09C24.84,36.65,19.84,50.28,30.44,59.76Z"/><path class="cls-1" d="M62.85,33.81a3.77,3.77,0,0,0-2.58-2,3.73,3.73,0,0,0-3.12.75l-.27.22a3.79,3.79,0,0,0-.94,4.69,21.77,21.77,0,0,1,2.37,9.72,21.29,21.29,0,0,1-21,21.24h-.18a2.8,2.8,0,0,0-.41,0h-.19a21.28,21.28,0,0,1-21-21.24,21.77,21.77,0,0,1,2.37-9.72,3.8,3.8,0,0,0-.94-4.69l-.27-.22a3.77,3.77,0,0,0-5.7,1.2,29.08,29.08,0,0,0,25.6,42.55h.78A29.09,29.09,0,0,0,62.85,33.81Z"/><path class="cls-1" d="M164.83,28.61c-5.33,0-9.5,1.63-12.39,4.84s-4.38,7.48-4.38,12.65v5.71c0,5.19,1.47,9.45,4.38,12.66s7.06,4.83,12.39,4.83,9.5-1.63,12.41-4.85,4.38-7.47,4.38-12.64V46.1c0-5.2-1.47-9.46-4.38-12.66S170.15,28.61,164.83,28.61Zm7.76,23.23a11.75,11.75,0,0,1-2,7.2,7.59,7.59,0,0,1-11.53,0,11.76,11.76,0,0,1-2-7.19V46.07a11.81,11.81,0,0,1,2-7.2,7.6,7.6,0,0,1,11.53,0,11.73,11.73,0,0,1,2,7.2Z"/><path class="cls-1" d="M189,57.68c0,7.93,4.57,11.62,14.38,11.62a65.7,65.7,0,0,0,13.08-1,1.89,1.89,0,0,0,1-.42,1.42,1.42,0,0,0,.25-.92V62.44a1.19,1.19,0,0,0-.39-.9,1.21,1.21,0,0,0-.88-.37H204.21c-2.11,0-3.61-.46-4.44-1.37s-1.26-2.54-1.26-4.87V17.66a1.3,1.3,0,0,0-1.26-1.26h-7a1.17,1.17,0,0,0-.89.38,1.23,1.23,0,0,0-.37.88Z"/><path class="cls-1" d="M140.56,30.36a1.21,1.21,0,0,0-.39-.88,1.19,1.19,0,0,0-.87-.39h-6.52a1.2,1.2,0,0,0-.87.39,1.18,1.18,0,0,0-.38.88V67.41a1.31,1.31,0,0,0,.39.92,1.15,1.15,0,0,0,.86.41h6.52a1.16,1.16,0,0,0,.87-.41,1.33,1.33,0,0,0,.39-.92Z"/><path class="cls-1" d="M226.26,68.74h6.52a1.14,1.14,0,0,0,.86-.41,1.33,1.33,0,0,0,.39-.92v-37a1.32,1.32,0,0,0-1.25-1.27h-6.52a1.19,1.19,0,0,0-.87.39,1.21,1.21,0,0,0-.39.88V67.41a1.33,1.33,0,0,0,.39.92A1.14,1.14,0,0,0,226.26,68.74Z"/><path class="cls-1" d="M304.9,50.39v-4c0-5.37-1.48-9.74-4.39-13s-7.06-4.86-12.32-4.86-9.5,1.6-12.43,4.76-4.42,7.56-4.42,13.07v5.23A20.9,20.9,0,0,0,273,60.24a13.25,13.25,0,0,0,4.27,5.49,19,19,0,0,0,5.44,2.73,19.52,19.52,0,0,0,5.67.84h.43a85.43,85.43,0,0,0,13.28-1,1.52,1.52,0,0,0,1.35-1.73V61.88c0-.39-.11-.92-1.12-.92h-.21c-4.94.48-9.33.73-13.06.73-3.11,0-5.36-.92-6.68-2.72a10.87,10.87,0,0,1-2-6.57V52h23.27C304.49,52,304.9,51.47,304.9,50.39Zm-9.1-4.88v.16H280.44v-.44a9.6,9.6,0,0,1,2.14-6.62,7.19,7.19,0,0,1,5.61-2.39,7,7,0,0,1,5.51,2.39,9.74,9.74,0,0,1,2.1,6.62Z"/><path class="cls-1" d="M123.46,54.2V53c0-5.13-2.28-8.69-6.77-10.59l-.33-.15.33-.14a9.79,9.79,0,0,0,4.77-4.17,12.5,12.5,0,0,0,1.65-6.4V30.11c0-9.47-7.28-14.27-21.66-14.27a81.83,81.83,0,0,0-11.79.69,3.91,3.91,0,0,0-2.38,1.11,4,4,0,0,0-.67,2.58V64.85a3.72,3.72,0,0,0,.73,2.61,4.9,4.9,0,0,0,2.53,1.08,72.08,72.08,0,0,0,12.2.76c6.88,0,12.23-1.21,15.89-3.58S123.46,59.48,123.46,54.2ZM96.09,38.49V23.64h.15c2-.12,3.77-.18,5.21-.18,4.53,0,7.77.53,9.61,1.58s2.82,2.94,2.82,5.56v1c0,4.67-2.87,7-8.54,7H96.09Zm18.06,15.64c0,2.64-.92,4.58-2.74,5.78s-4.93,1.78-9.34,1.78c-.47,0-1.43,0-2.83-.07s-2.42-.07-3-.07h-.16V45.42h9.17c3.1,0,5.38.73,6.79,2.17a7.76,7.76,0,0,1,2.1,5.6Z"/><path class="cls-1" d="M131.32,23.24a1.15,1.15,0,0,0,.41.89,1.35,1.35,0,0,0,.91.37h6.87a1.32,1.32,0,0,0,1.25-1.26V17.57a1.18,1.18,0,0,0-.38-.87,1.2,1.2,0,0,0-.87-.39h-6.87a1.35,1.35,0,0,0-.91.39,1.16,1.16,0,0,0-.41.87Z"/><path class="cls-1" d="M116.75,42.25a14,14,0,0,1,1.6.8,14,14,0,0,0-1.54-.82Z"/><path class="cls-1" d="M267.3,67.74V63.4c0-.38-.14-.88-1.34-.88h-5.31c-1.36,0-2.18-.23-2.49-.7a7.68,7.68,0,0,1-.45-3.43V35.87h6.53a1.17,1.17,0,0,0,.89-.38,1.27,1.27,0,0,0,.37-.89V30.37a1.25,1.25,0,0,0-.39-.89,1.19,1.19,0,0,0-.87-.39h-6.53V19.18c0-.62-.31-.91-1-.91h-.27L249.9,19.4c-.86.17-1.28.58-1.28,1.26v6.82h0V29h-6.52a1.18,1.18,0,0,0-.89.39,1.27,1.27,0,0,0-.37.89v4.23a1.21,1.21,0,0,0,.39.89,1.16,1.16,0,0,0,.87.38h6.52V58.23c0,4.45.82,7.43,2.44,8.88s4.54,2.19,8.68,2.19a52.85,52.85,0,0,0,6.34-.47C266.9,68.71,267.3,68.35,267.3,67.74Z"/><path class="cls-1" d="M224.79,23.24a1.16,1.16,0,0,0,.42.89,1.38,1.38,0,0,0,.91.37H233a1.17,1.17,0,0,0,.87-.39,1.19,1.19,0,0,0,.39-.87V17.57A1.34,1.34,0,0,0,233,16.31h-6.86a1.33,1.33,0,0,0-.91.39,1.17,1.17,0,0,0-.42.87Z"/></svg>