<?xml version="1.0" encoding="UTF-8"?>
<svg width="195px" height="44px" viewBox="0 0 195 44" version="1.1" xmlns="http://www.w3.org/2000/svg" xmlns:xlink="http://www.w3.org/1999/xlink">
    <!-- Generator: Sketch 63.1 (92452) - https://sketch.com -->
    <title>logo</title>
    <desc>Created with Sketch.</desc>
    <g id="Page-1" stroke="none" stroke-width="1" fill="none" fill-rule="evenodd">
        <g id="logo" fill-rule="nonzero">
            <path d="M0.2,0.6 L0.2,15.9 C0.9,14.7 5.4,14.1 11,14.7 C13.3,7.8 17.3,3.3 21,4 C23.2,4.5 24.9,6.8 25.8,10.2 C27.7,6.6 30,4.6 31.8,4.9 C34,5.4 35.2,9.2 35.3,14.7 C35,11.3 34,8.4 32.5,8.1 C29.7,7.5 26,14.9 24.3,23.8 C24.1,24.4 24,25.2 23.9,25.8 C32.4,27.2 40.6,27.3 42.8,25.4 C43.3,24.9 42.4,24 41.3,23.2 C42,23.7 42.7,24.2 43.1,24.7 L43.1,0.7 L0.2,0.7 L0.2,0.6 Z M11.7,21.1 C11.6,21.5 11.5,21.9 11.5,22.3 C11.5,22.4 11.5,22.6 11.4,22.7 C14.3,23.7 17.7,24.6 21,25.3 C21.2,24.2 21.4,23.1 21.6,21.9 C22.4,17.7 23.8,13.8 25.3,10.9 C24.3,8.8 22.7,7.1 21.2,6.8 C18.3,6.2 15.3,9.2 13.3,15 C15.3,15.3 17.6,15.6 20,16.2 C17.7,15.8 15.4,15.6 13.2,15.4 C12.6,17 12.1,19 11.7,21.1 L11.7,21.1 Z M9.3,21.8 L9.3,21.5 C9.4,20.8 9.5,20.1 9.7,19.4 C10,17.9 10.3,16.5 10.8,15.1 C5.9,14.9 1.2,15.4 1.9,16.6 C3,18.6 5.7,20.3 9.3,21.8 L9.3,21.8 Z M23.5,28 C22.8,34.9 23.7,40.3 26,40.7 L26.5,40.7 C25.8,41.3 25,41.4 24.3,41.3 C21.6,40.7 20.2,35 20.7,27.6 C17.4,27 14.1,26.1 11.1,25 C10.5,32.5 12.9,37 16.1,37.6 C16.4,37.6 16.6,37.7 16.8,37.7 C15.9,38.2 14.9,38.3 13.9,38.1 C10.2,37.4 8.4,31.5 8.9,24.2 C4.5,22.3 1.1,19.8 0.1,16.8 L0.1,43.3 L42.9,43.3 L42.9,25.9 C39.9,28.7 31.9,29.2 23.5,28 L23.5,28 Z" id="Shape" fill="#C41230"></path>
            <path d="M23.9,25.8 C24,25.2 24.1,24.4 24.3,23.8 C26.1,15 29.7,7.6 32.5,8.1 C34,8.4 35,11.3 35.3,14.7 C35.3,9.3 34,5.4 31.8,4.9 C30,4.5 27.7,6.6 25.8,10.2 C25,6.8 23.3,4.5 21,4 C17.3,3.3 13.4,7.9 11,14.7 C5.5,14.2 1,14.7 0.2,15.9 L0.2,16.7 C1.2,19.6 4.6,22 9,24.1 C8.5,31.5 10.3,37.3 14.1,38 C15,38.2 16,38 17,37.6 C16.7,37.6 16.5,37.6 16.3,37.5 C13.1,36.9 10.8,32.3 11.3,24.9 C14.2,26 17.6,26.9 20.9,27.5 C20.3,35 21.8,40.7 24.5,41.2 C25.2,41.4 26,41.1 26.7,40.6 L26.1,40.6 C23.8,40.1 22.8,34.8 23.6,27.9 C31.8,29.1 39.7,28.6 42.9,25.9 L42.9,25.2 C42.9,25.2 42.9,25.3 42.8,25.3 C40.6,27.2 32.4,27.2 23.9,25.8 Z M9.7,19.4 C9.5,20.1 9.4,20.8 9.3,21.5 L9.3,21.8 C5.7,20.3 2.9,18.6 1.9,16.5 C1.3,15.3 6,14.7 10.8,15 C10.3,16.5 10,17.9 9.7,19.4 Z M21.6,21.8 C21.3,23 21.1,24.1 21,25.2 C17.7,24.6 14.4,23.6 11.4,22.6 C11.4,22.5 11.4,22.3 11.5,22.2 C11.6,21.8 11.6,21.5 11.7,21 C12.1,18.8 12.6,16.9 13.2,15.1 C15.4,15.3 17.8,15.6 20,15.9 C17.6,15.3 15.3,15 13.3,14.7 C15.4,8.9 18.4,5.9 21.2,6.5 C22.6,6.8 24.2,8.4 25.3,10.6 C23.8,13.7 22.5,17.6 21.6,21.8 L21.6,21.8 Z M41.2,23.2 C41.9,23.8 42.6,24.4 42.8,24.9 L42.8,24.6 C42.4,24.1 41.9,23.7 41.2,23.2 Z" id="Shape" fill="#FFFFFF"></path>
            <path d="M62.8,11.2 L62.8,18.8 L70.2,18.8 L70.2,11.2 L74.6,11.2 L74.6,30.9 L70.2,30.9 L70.2,22.7 L62.8,22.7 L62.8,30.9 L58.3,30.9 L58.3,11.2 L62.8,11.2 Z M91.8,26.3 C91.8,28.1 91.9,29.7 91.9,30.9 L88,30.9 L87.8,28.9 L87.7,28.9 C87.1,29.8 85.8,31.2 83.2,31.2 C80.3,31.2 78.1,29.4 78.1,24.9 L78.1,16.5 L82.6,16.5 L82.6,24.1 C82.6,26.2 83.2,27.4 84.8,27.4 C86,27.4 86.7,26.6 87,25.8 C87.1,25.5 87.2,25.2 87.2,24.9 L87.2,16.4 L91.7,16.4 L91.7,26.3 L91.8,26.3 L91.8,26.3 Z M95.4,27.1 C96.2,27.6 97.9,28.2 99.3,28.2 C100.7,28.2 101.2,27.7 101.2,27 C101.2,26.3 100.7,25.9 99.1,25.3 C96.2,24.3 95,22.7 95,21 C95,18.3 97.3,16.3 100.8,16.3 C102.5,16.3 103.9,16.7 104.9,17.1 L104.1,20.1 C103.5,19.7 102.3,19.3 101,19.3 C99.9,19.3 99.3,19.8 99.3,20.5 C99.3,21.1 99.9,21.5 101.6,22.2 C104.4,23.1 105.5,24.5 105.5,26.6 C105.5,29.3 103.4,31.2 99.3,31.2 C97.5,31.2 95.8,30.8 94.7,30.2 L95.4,27.1 L95.4,27.1 Z M111.6,25.2 C111.8,27 113.5,27.9 115.7,27.9 C117.3,27.9 118.5,27.7 119.7,27.3 L120.3,30.3 C118.8,30.9 117.1,31.2 115.1,31.2 C110.2,31.2 107.5,28.4 107.5,23.9 C107.5,20.3 109.7,16.3 114.8,16.3 C119.4,16.3 121.2,19.9 121.2,23.4 C121.2,24.1 121.1,24.9 121,25.2 L111.6,25.2 L111.6,25.2 Z M116.9,22.2 C116.9,21.1 116.4,19.3 114.4,19.3 C112.6,19.3 111.7,21 111.6,22.2 L116.9,22.2 Z M123.5,30.9 C123.6,30 123.6,28.2 123.6,26.7 L123.6,10.2 L128,10.2 L128,18.3 L128.1,18.3 C128.9,17.1 130.4,16.3 132.4,16.3 C135.8,16.3 138.4,19.2 138.3,23.5 C138.3,28.7 135,31.2 131.8,31.2 C130.1,31.2 128.5,30.6 127.5,28.9 L127.4,28.9 L127.2,30.9 L123.5,30.9 L123.5,30.9 Z M128.1,24.9 C128.1,25.2 128.1,25.5 128.2,25.7 C128.5,26.9 129.5,27.8 130.8,27.8 C132.7,27.8 133.8,26.3 133.8,23.7 C133.8,21.5 132.8,19.7 130.8,19.7 C129.6,19.7 128.5,20.6 128.2,21.9 C128.1,22.2 128.1,22.5 128.1,22.7 L128.1,24.9 Z M144.5,16.7 L146.6,23.7 C146.9,24.5 147.2,25.6 147.3,26.4 L147.4,26.4 C147.6,25.7 147.9,24.6 148,23.7 L149.8,16.7 L154.6,16.7 L151.3,26.1 C149.3,31.7 147.9,34 146.2,35.5 C144.6,36.9 143,37.3 141.9,37.4 L141,33.6 C141.6,33.5 142.3,33.2 142.9,32.9 C143.5,32.5 144.3,31.9 144.7,31.1 C144.9,30.9 145,30.6 145,30.5 C145,30.4 145,30.1 144.8,29.8 L139.5,16.7 L144.5,16.7 L144.5,16.7 Z" id="Shape" fill="#232323"></path>
            <path d="M154.3,29.3 C154.3,28.3 155,27.5 156.1,27.5 C157.1,27.5 157.8,28.2 157.8,29.3 C157.8,30.4 157.2,31.1 156,31.1 C155,31 154.3,30.3 154.3,29.3 Z M167.9,30.6 C167.3,30.9 166.4,31.1 165.3,31.1 C162.3,31.1 160.3,29.3 160.3,26.3 C160.3,23.5 162.1,21.3 165.6,21.3 C166.3,21.3 167.2,21.4 167.8,21.7 L167.3,23.8 C166.9,23.6 166.5,23.5 165.6,23.5 C164,23.5 163.1,24.6 163.1,26.1 C163.1,27.8 164.2,28.7 165.7,28.7 C166.3,28.7 166.9,28.6 167.4,28.4 L167.9,30.6 Z M178.7,26 C178.7,29.4 176.3,31 173.8,31 C171,31 169,29.2 169,26.2 C169,23.2 171,21.2 174,21.2 C176.8,21.3 178.7,23.3 178.7,26 L178.7,26 Z M172,26.1 C172,27.7 172.6,28.9 173.9,28.9 C175,28.9 175.7,27.8 175.7,26 C175.7,24.6 175.2,23.2 173.9,23.2 C172.5,23.4 172,24.8 172,26.1 Z M180.5,24.5 C180.5,23.3 180.5,22.4 180.4,21.6 L182.9,21.6 L183,22.9 L183.1,22.9 C183.5,22.3 184.3,21.4 186,21.4 C187.2,21.4 188.1,22 188.6,23 C189,22.5 189.3,22.1 189.8,21.9 C190.4,21.6 190.9,21.4 191.6,21.4 C193.4,21.4 194.7,22.7 194.7,25.5 L194.7,31 L191.8,31 L191.8,25.9 C191.8,24.5 191.3,23.8 190.4,23.8 C189.8,23.8 189.3,24.3 189,24.8 C188.9,25 188.9,25.3 188.9,25.5 L188.9,30.9 L186,30.9 L186,25.6 C186,24.4 185.5,23.7 184.6,23.7 C183.9,23.7 183.4,24.3 183.2,24.7 C183.1,24.9 183.1,25.2 183.1,25.4 L183.1,30.8 L180.2,30.8 L180.2,24.3 L180.5,24.5 L180.5,24.5 Z" id="Shape" fill="#010101"></path>
        </g>
    </g>
</svg>