<!--
  - Copyright © 2024, Oracle and/or its affiliates.
  -->

<svg width="186" height="43" fill="none" xmlns="http://www.w3.org/2000/svg"><path d="M67.997 19.04c.212.55 1.026.452 1.097-.133.441-3.546-1.408-7.67-3.669-10.28-2.265-2.608-5.602-4.407-9.144-4.396-3.687.014-6.929 1.915-9.473 4.47-1.294 1.301-2.392 2.78-3.46 4.268-1.972 2.755-2.749 3.21-1.517 4.625l1.107 1.288c.618.72 1.228 1.086 2 .532 1.782-1.27 4.061-2.73 5.942-3.845 2.088-1.238 4.381-2.42 6.85-2.625 2.41-.197 4.943.417 6.915 1.803 1.507 1.059 2.738 2.537 3.348 4.294h.004Z" fill="#264759"/><path d="M65.633 1.634C60.458-.66 54.68-.663 50.312 2.42c-.664.473-.127 1.507.635 1.214 4.233-1.637 9.617-1.249 13.942 2.47 5.426 4.667 7.92 13.617 2.97 19.526-1.63 1.944-3.887 3.384-6.428 3.743-4.505.635-9.08-.9-12.834-3.326a26.853 26.853 0 0 1-5.49-4.717c-1.93-2.177-3.767-4.435-5.464-6.798-2.854-3.983-5.288-7.998-9.451-10.768-3.415-2.272-7.486-3.573-11.6-3.316-4.117.258-8.287 2.258-11.42 5.193-5.64 5.296-6.657 14.179-3.1 21.086 2.56 4.975 6.963 8.549 11.938 10.887.917.438 1.51-.613.938-1.132C10.252 32.21 5.91 25.44 7.444 19.936c.928-3.369 2.763-4.738 5.634-4.702 2.138.01 4.971 2.543 6.343 4.385.505.674 1.006 1.344 1.528 2 3.729 4.681 7.26 8.301 14.884 13.558 15.953 11.546 39.886 7.567 41.69-13.812.578-6.84-2.619-15.618-11.893-19.731h.003Z" fill="#36677D"/><path d="M22.152 28.233c-1.295-.236-2.476-.846-3.567-1.559-1.301-.854-2.48-1.873-3.612-2.935-.275-.258-.702.05-.565.413.575 1.552 2.018 4.23 5.529 6.636 1.764 1.21 4.388 2.261 6.505 2.596.953.152 1.86.17 2.582.145.572-.021.808-.745.35-1.094-1.157-.882-2.819-2.17-3.754-2.946a4.743 4.743 0 0 0-2.152-1.012l-1.32-.247.004.003Z" fill="#E2C06B"/><path d="M33.29 35.501a3.497 3.497 0 0 0-1.778-.614c-1.306-.074-3.55-.211-4.294-.296-8.897-.776-17.16-8.83-14.648-17.248a.489.489 0 0 0-.582-.61c-3.126.787-4.06 5.006-2.974 8.594 3.574 9.768 14.242 17.209 23.39 14.856.684-.205 1.665-.664 2.537-1.108.871-.445.994-1.74.155-2.325l-1.803-1.249h-.004Z" fill="#264759"/><path d="M62.465 14.88c-1.626-.504-4.173-1.22-7.923.434-4.043 1.782-7.08 4.18-8.51 5.225a.88.88 0 0 0-.148 1.291c.755.861 2.255 2.31 4.593 3.436a.883.883 0 0 0 1.066-.229c1.386-1.672 7.18-6.77 11.003-8.51.734-.33.692-1.403-.08-1.643v-.004Z" fill="#E2C06B"/><path d="M89.743 36.316V16.882h2.353l10.345 15.344V16.882h2.459v19.434h-2.353L92.202 20.972v15.344h-2.46ZM118.895 35.621c-.499.304-1.167.543-2.005.722-.82.178-1.72.268-2.7.268-2.21 0-3.886-.624-5.026-1.872-1.123-1.266-1.685-3.11-1.685-5.532 0-2.423.535-4.108 1.605-5.32 1.087-1.212 2.638-1.819 4.651-1.819 3.885 0 5.827 2.148 5.827 6.442v1.55h-9.651c.107 1.568.525 2.717 1.257 3.448.73.714 1.818 1.07 3.262 1.07.801 0 1.559-.08 2.272-.24.713-.162 1.443-.41 2.192-.75v2.032l.001.001Zm-5.159-11.575c-1.176 0-2.095.357-2.754 1.069-.642.695-.997 1.71-1.068 3.048h7.325c0-1.462-.276-2.514-.829-3.154-.534-.643-1.425-.963-2.673-.963h-.001ZM122.797 32.066v-7.725h-2.405v-1.23l2.405-.801.963-3.796h1.443v3.849h3.021v1.978h-3.021v7.698c0 1.533.659 2.3 1.978 2.3.214 0 .419-.01.615-.028a9.96 9.96 0 0 1 .587-.08v2.085a5.5 5.5 0 0 1-.775.108c-.249.018-.517.027-.802.027-1.372 0-2.387-.356-3.048-1.068-.642-.714-.962-1.819-.962-3.315l.001-.002ZM130.252 35.46v-2.192c1.96.802 3.831 1.203 5.613 1.203 1.497 0 2.664-.295 3.502-.882.856-.588 1.282-1.4 1.282-2.433 0-.767-.258-1.4-.775-1.898-.516-.499-1.453-1.006-2.807-1.524l-2.058-.801c-1.729-.677-2.976-1.425-3.743-2.245a4.277 4.277 0 0 1-1.123-2.94c0-1.604.606-2.869 1.818-3.796 1.212-.928 2.869-1.39 4.973-1.39.873 0 1.773.106 2.7.32.927.196 1.72.472 2.378.829v2.191c-1.818-.784-3.492-1.176-5.025-1.176-2.905 0-4.358.99-4.358 2.967 0 .66.258 1.22.776 1.685.516.463 1.425.953 2.726 1.47l2.058.802c1.782.695 3.048 1.479 3.796 2.353.767.856 1.149 1.89 1.149 3.1 0 1.748-.624 3.11-1.871 4.091-1.23.963-2.958 1.444-5.187 1.444-.677 0-1.39-.053-2.138-.161a16.556 16.556 0 0 1-2.058-.428 10.011 10.011 0 0 1-1.631-.587l.003-.002ZM145.179 30.996v-8.634h2.406v8.555c0 1.194.258 2.111.776 2.753.516.642 1.273.962 2.272.962.838 0 1.621-.285 2.353-.856.748-.587 1.309-1.363 1.684-2.325v-9.089h2.406v13.954h-1.63l-.428-2.379a5.892 5.892 0 0 1-2.166 1.978 5.804 5.804 0 0 1-2.807.695c-1.549 0-2.753-.481-3.609-1.443-.838-.963-1.257-2.353-1.257-4.17v-.001ZM160.12 19.907v-2.165h2.94v2.165h-2.94Zm.562 16.41V24.235l-1.39-.882v-.99h3.796v13.954h-2.406ZM167.018 32.066v-7.725h-2.405v-1.23l2.405-.801.963-3.796h1.443v3.849h3.021v1.978h-3.021v7.698c0 1.533.659 2.3 1.978 2.3.214 0 .419-.01.615-.028.214-.035.409-.062.588-.08v2.085a5.5 5.5 0 0 1-.775.108c-.249.018-.516.027-.802.027-1.372 0-2.387-.356-3.047-1.068-.642-.714-.963-1.819-.963-3.315v-.002ZM185.332 35.621c-.499.304-1.167.543-2.005.722-.82.178-1.72.268-2.7.268-2.21 0-3.886-.624-5.026-1.872-1.123-1.266-1.683-3.11-1.683-5.532 0-2.423.534-4.108 1.604-5.32 1.087-1.212 2.638-1.819 4.651-1.819 3.886 0 5.827 2.148 5.827 6.442v1.55h-9.65c.106 1.568.525 2.717 1.256 3.448.731.714 1.819 1.07 3.262 1.07.802 0 1.559-.08 2.272-.24.714-.162 1.444-.41 2.192-.75v2.033Zm-5.159-11.575c-1.176 0-2.095.357-2.753 1.069-.642.695-.999 1.71-1.069 3.048h7.325c0-1.462-.276-2.514-.829-3.154-.534-.643-1.425-.963-2.673-.963h-.001ZM108.976 9.408h2.942l-1.555-2.507-2.854 4.53h-1.303l3.474-5.439a.817.817 0 0 1 .681-.355c.277 0 .523.128.672.345l3.485 5.448h-1.298l-.612-1.012h-2.982l-.651-1.011.001.001Zm13.504 1.012V5.69h-1.105v5.192c0 .142.059.281.163.38a.555.555 0 0 0 .4.167h5.029l.656-1.012h-5.142l-.001.002Zm-18.252-.845c1.077 0 1.94-.868 1.94-1.94a1.94 1.94 0 0 0-1.94-1.944h-4.827v5.74h1.105V6.708h3.652c.514 0 .929.415.929.927a.932.932 0 0 1-.929.933h-3.109l3.297 2.867h1.599l-2.211-1.856h.503M92.614 11.43h3.337a2.861 2.861 0 0 0 2.863-2.867 2.868 2.868 0 0 0-2.868-2.873h-3.332a2.869 2.869 0 0 0-2.872 2.873 2.864 2.864 0 0 0 2.872 2.867Zm3.258-1.012h-3.188a1.856 1.856 0 0 1 0-3.711h3.184c1.028 0 1.861.828 1.861 1.856a1.854 1.854 0 0 1-1.86 1.855m20.95 1.012h3.405l.648-1.012h-3.973a1.858 1.858 0 0 1-1.861-1.855c0-1.022.829-1.856 1.861-1.856h3.233l.657-1.017h-3.964a2.872 2.872 0 0 0-2.873 2.873 2.867 2.867 0 0 0 2.873 2.867m13.493-1.012a1.862 1.862 0 0 1-1.787-1.352h4.713l.651-1.012h-5.365a1.855 1.855 0 0 1 1.787-1.353h3.237l.647-1.011h-3.958a2.868 2.868 0 0 0-2.867 2.873 2.863 2.863 0 0 0 2.867 2.867h3.406l.647-1.012h-3.978Z" fill="#161513"/></svg>