<?xml version="1.0" encoding="UTF-8"?>
<!-- Generator: Adobe Illustrator 26.3.1, SVG Export Plug-In . SVG Version: 6.00 Build 0)  -->
<svg version="1.1" id="Layer_1" xmlns="http://www.w3.org/2000/svg" xmlns:xlink="http://www.w3.org/1999/xlink" x="0px" y="0px" viewBox="0 0 195.8 149.1" style="enable-background:new 0 0 195.8 149.1;" xml:space="preserve">
<style type="text/css">
	.st0{fill:#020000;}
</style>
<path class="st0" d="M37.8,0h105c25.1,0,40.6,20.1,39.7,42.1c0,0-0.1,42.5-0.1,63.8c-0.6,10.4,4.5,10.3,13.1,11.9v7.1  c-17-0.6-37.3,6.3-37.3-19.7c0-0.5-0.9-0.4-1.1,0c-13.6,21.5-51.9,27.3-70.8,9.6c-25.3,13-50.1,11.9-77.2,8.5  c-2.7-0.5-5.3-1.3-7.9-2.3C0.5,112.5,0,91.5,0,91.5h9c0,3.4,2.8,8.8,7.2,14.2c13.1,16.3,57.2,12.9,56.1-12  c-0.4-9.5-4-11.9-11.3-15.7c-13.2-6.4-27-13.9-40.7-19.3C7.5,53.7,0.9,43.9,1.1,30.5C1,12.1,16.9,2.3,37.8,0z M91.9,68.6  c21-14.3,53.8-12.1,60.9-13.1c3.6-0.5,4.1-1,4.1-5.2V30.5C155.6,16.1,148.4,9,134,9c-28.4,0-56.8,0-85.2,0  c-18.7-1.7-32.4,14.7-15,28.4c8.7,7.3,19.9,10.5,29.8,15.6C73.1,58,82.5,63.4,91.9,68.6z M157.3,65.6c-19.2,0-35.7,0.8-48.3,14.8  C99,92.2,106,111.5,120.8,114c15.2,2.6,31.8-7.2,35.4-22.2C158.2,83.6,157.3,65.5,157.3,65.6L157.3,65.6z"/>
<path class="st0" d="M9.4,137.1c-0.9-1.1-2.2-1.6-3.6-1.5c-1-0.1-2,0.2-2.8,0.8c-0.6,0.5-0.9,1.3-0.9,2.1c0,0.4,0.1,0.8,0.2,1.1  c0.2,0.3,0.4,0.6,0.7,0.8c0.4,0.2,0.8,0.4,1.2,0.5c0.5,0.1,1.1,0.3,1.8,0.5c0.7,0.1,1.3,0.3,1.9,0.5c0.5,0.2,1,0.4,1.5,0.7  c0.4,0.3,0.7,0.7,0.9,1.1c0.2,0.5,0.3,1,0.3,1.6c0,0.6-0.1,1.1-0.3,1.6c-0.2,0.5-0.6,0.9-1,1.2c-0.4,0.3-1,0.6-1.5,0.7  c-0.6,0.2-1.3,0.2-1.9,0.2c-2,0-3.8-0.7-5.2-2.1l0.5-0.8c0.6,0.6,1.3,1.1,2,1.5c0.9,0.4,1.8,0.6,2.7,0.6c0.9,0.1,1.9-0.2,2.7-0.7  c0.7-0.5,1-1.2,1-2.1c0-0.4-0.1-0.8-0.3-1.2c-0.2-0.3-0.5-0.6-0.8-0.9c-0.4-0.3-0.8-0.5-1.3-0.6c-0.6-0.2-1.2-0.4-1.8-0.5  c-0.7-0.2-1.3-0.3-1.9-0.5c-0.5-0.2-0.9-0.4-1.4-0.7c-0.3-0.3-0.6-0.6-0.8-1c-0.2-0.5-0.3-1-0.3-1.5c0-0.6,0.1-1.2,0.3-1.7  c0.2-0.5,0.6-0.9,1-1.2c0.4-0.4,0.9-0.6,1.5-0.8c0.6-0.2,1.3-0.3,1.9-0.3c0.8,0,1.6,0.1,2.3,0.4c0.7,0.3,1.3,0.7,1.8,1.3L9.4,137.1z  "/>
<path class="st0" d="M12.3,138l3.8,6l3.8-6h1l-4.3,6.8v4.1h-0.9v-4.1l-4.3-6.8H12.3z"/>
<path class="st0" d="M29,140c-0.8-0.8-1.9-1.2-3-1.2c-0.8-0.1-1.6,0.1-2.3,0.6c-0.5,0.4-0.7,1-0.7,1.6c0,0.3,0.1,0.6,0.2,0.8  c0.1,0.2,0.3,0.4,0.6,0.6c0.3,0.2,0.7,0.3,1,0.4c0.4,0.1,0.9,0.2,1.4,0.4c0.5,0.1,1.1,0.2,1.6,0.4c0.4,0.1,0.8,0.3,1.2,0.6  c0.3,0.2,0.6,0.5,0.8,0.8c0.2,0.4,0.3,0.8,0.3,1.2c0,0.4-0.1,0.9-0.3,1.3c-0.2,0.4-0.5,0.7-0.8,0.9c-0.4,0.3-0.8,0.4-1.2,0.5  c-2.1,0.5-4.3,0-5.9-1.4l0.5-0.8c0.5,0.5,1,0.9,1.7,1.1c0.7,0.3,1.5,0.4,2.2,0.4c0.8,0,1.5-0.1,2.2-0.5c0.5-0.3,0.8-0.9,0.8-1.5  c0-0.3-0.1-0.6-0.2-0.9c-0.2-0.3-0.4-0.5-0.6-0.6c-0.3-0.2-0.7-0.4-1.1-0.5c-0.4-0.1-0.9-0.2-1.5-0.4c-0.5-0.1-1-0.2-1.5-0.4  c-0.4-0.1-0.8-0.3-1.1-0.5c-0.3-0.2-0.5-0.5-0.7-0.8c-0.2-0.4-0.3-0.7-0.2-1.1c0-0.5,0.1-0.9,0.3-1.3c0.2-0.4,0.5-0.7,0.8-1  c0.4-0.3,0.8-0.5,1.2-0.6c0.5-0.1,1-0.2,1.5-0.2c1.3,0,2.5,0.4,3.4,1.3L29,140z"/>
<path class="st0" d="M40.1,138.9h-4v10h-0.8v-10h-4V138h8.9L40.1,138.9z"/>
<path class="st0" d="M49.5,148.1v0.8h-7.4V138h7.2v0.9H43v4.1h5.6v0.8H43v4.3L49.5,148.1z"/>
<path class="st0" d="M62,148.9v-9.2l-4.3,7.1h-0.5l-4.3-7.1v9.2H52V138h0.9l4.5,7.6L62,138h0.9v10.9L62,148.9z"/>
<path class="st0" d="M72.5,140c-0.8-0.8-1.9-1.2-3-1.2c-0.8-0.1-1.6,0.1-2.3,0.6c-0.5,0.4-0.7,1-0.7,1.6c0,0.3,0.1,0.6,0.2,0.8  c0.1,0.2,0.3,0.4,0.6,0.6c0.3,0.2,0.7,0.3,1,0.4c0.4,0.1,0.9,0.2,1.4,0.4c0.5,0.1,1.1,0.2,1.6,0.4c0.4,0.1,0.8,0.3,1.2,0.6  c0.3,0.2,0.6,0.5,0.8,0.8c0.2,0.4,0.3,0.8,0.3,1.2c0,0.4-0.1,0.9-0.3,1.3c-0.2,0.4-0.5,0.7-0.8,0.9c-0.4,0.3-0.8,0.4-1.2,0.5  c-2.1,0.5-4.3,0-5.9-1.4l0.5-0.8c0.5,0.5,1,0.9,1.7,1.1c0.7,0.3,1.5,0.4,2.2,0.4c0.8,0,1.5-0.1,2.2-0.5c0.5-0.3,0.8-0.9,0.8-1.5  c0-0.3-0.1-0.6-0.2-0.9c-0.2-0.3-0.4-0.5-0.6-0.6c-0.3-0.2-0.7-0.4-1.1-0.5c-0.4-0.1-0.9-0.2-1.5-0.4c-0.5-0.1-1-0.2-1.5-0.4  c-0.4-0.1-0.8-0.3-1.1-0.5c-0.3-0.2-0.5-0.5-0.7-0.8c-0.2-0.4-0.3-0.8-0.2-1.2c0-0.5,0.1-0.9,0.3-1.3c0.2-0.4,0.5-0.7,0.8-1  c0.4-0.3,0.8-0.5,1.2-0.6c0.5-0.1,1-0.2,1.6-0.2c1.3,0,2.5,0.4,3.4,1.3L72.5,140z"/>
<path class="st0" d="M80.1,134.7h0.8l5.6,14.2h-1l-1.8-4.7h-6.3l-1.8,4.7h-1L80.1,134.7z M83.4,143.4l-2.9-7.4l-2.9,7.4L83.4,143.4z  "/>
<path class="st0" d="M87.4,143.4c0-0.7,0.1-1.4,0.3-2c0.2-0.6,0.6-1.2,1-1.7c0.5-0.5,1-0.9,1.6-1.2c0.7-0.3,1.5-0.5,2.2-0.5  c0.9,0,1.8,0.2,2.5,0.7c0.7,0.4,1.2,1,1.6,1.7l-0.7,0.5c-0.2-0.3-0.4-0.7-0.7-0.9c-0.5-0.5-1.1-0.8-1.8-0.9c-0.3-0.1-0.7-0.1-1-0.1  c-0.6,0-1.3,0.1-1.8,0.4c-0.5,0.3-1,0.6-1.3,1.1c-0.4,0.4-0.6,0.9-0.8,1.5c-0.2,0.5-0.3,1.1-0.3,1.7c0,0.6,0.1,1.2,0.3,1.8  c0.2,0.5,0.5,1.1,0.9,1.5c0.4,0.4,0.9,0.8,1.4,1c0.5,0.3,1.1,0.4,1.7,0.4c0.3,0,0.7,0,1-0.1c0.3-0.1,0.7-0.2,1-0.4  c0.3-0.2,0.6-0.4,0.9-0.6c0.3-0.3,0.5-0.6,0.7-0.9l0.7,0.4c-0.2,0.4-0.4,0.8-0.8,1.1c-0.3,0.3-0.7,0.6-1.1,0.8  c-0.4,0.2-0.8,0.4-1.2,0.5c-0.4,0.1-0.9,0.2-1.3,0.2c-0.7,0-1.4-0.2-2.1-0.5c-0.6-0.3-1.2-0.8-1.6-1.3c-0.5-0.5-0.8-1.2-1.1-1.8  C87.5,144.7,87.4,144.1,87.4,143.4z"/>
<path class="st0" d="M98.4,143.4c0-0.7,0.1-1.4,0.3-2c0.2-0.6,0.6-1.2,1-1.7c0.5-0.5,1-0.9,1.6-1.2c0.7-0.3,1.4-0.5,2.2-0.5  c0.9,0,1.8,0.2,2.5,0.7c0.7,0.4,1.2,1,1.6,1.7l-0.7,0.5c-0.2-0.3-0.4-0.7-0.7-0.9c-0.5-0.5-1.1-0.8-1.8-0.9c-0.3-0.1-0.7-0.1-1-0.1  c-0.6,0-1.3,0.1-1.8,0.4c-0.5,0.3-1,0.6-1.3,1.1c-0.4,0.4-0.6,0.9-0.8,1.5c-0.2,0.5-0.3,1.1-0.3,1.7c0,0.6,0.1,1.2,0.3,1.8  c0.2,0.5,0.5,1,0.9,1.5c0.4,0.4,0.9,0.8,1.4,1c0.5,0.3,1.1,0.4,1.7,0.4c0.3,0,0.7,0,1-0.1c0.3-0.1,0.7-0.2,1-0.4  c0.3-0.2,0.6-0.4,0.9-0.6c0.3-0.3,0.5-0.6,0.7-0.9l0.8,0.4c-0.2,0.4-0.4,0.8-0.8,1.1c-0.3,0.3-0.7,0.6-1.1,0.8  c-0.4,0.2-0.8,0.4-1.2,0.5c-0.4,0.1-0.9,0.2-1.3,0.2c-0.7,0-1.4-0.2-2.1-0.5c-0.6-0.3-1.2-0.8-1.6-1.3c-0.5-0.5-0.8-1.2-1.1-1.8  C98.5,144.7,98.4,144.1,98.4,143.4z"/>
<path class="st0" d="M114.5,149c-0.7,0-1.4-0.2-2.1-0.5c-0.6-0.3-1.2-0.7-1.6-1.2c-0.9-1.1-1.4-2.4-1.4-3.8c0-1.4,0.5-2.8,1.5-3.8  c0.5-0.5,1-0.9,1.6-1.2c0.6-0.3,1.3-0.5,2.1-0.4c0.7,0,1.4,0.2,2.1,0.5c0.6,0.3,1.2,0.7,1.6,1.3c0.4,0.5,0.8,1.1,1,1.8  c0.2,0.6,0.4,1.3,0.4,2c0,1.4-0.5,2.8-1.5,3.9c-0.5,0.5-1,0.9-1.6,1.2C115.9,148.8,115.2,149,114.5,149z M110.2,143.5  c0,0.6,0.1,1.2,0.3,1.8c0.2,0.5,0.5,1.1,0.9,1.5c0.4,0.4,0.8,0.8,1.4,1c0.5,0.3,1.1,0.4,1.7,0.4c0.6,0,1.2-0.1,1.8-0.4  c0.5-0.3,1-0.6,1.3-1.1c0.4-0.4,0.7-1,0.9-1.5c0.2-0.5,0.3-1.1,0.3-1.7c0-0.6-0.1-1.2-0.3-1.7c-0.2-0.5-0.5-1.1-0.9-1.5  c-0.4-0.4-0.8-0.8-1.4-1c-1.1-0.5-2.4-0.5-3.5,0c-0.5,0.3-1,0.6-1.3,1.1c-0.4,0.4-0.7,1-0.9,1.5  C110.3,142.3,110.2,142.9,110.2,143.5L110.2,143.5z"/>
<path class="st0" d="M126.6,148.2c0.6,0,1.3-0.1,1.8-0.4c0.5-0.3,0.8-0.6,1.1-1.1c0.3-0.5,0.5-1,0.6-1.5c0.1-0.6,0.2-1.1,0.2-1.7  V138h0.9v5.5c0,0.7-0.1,1.4-0.2,2.1c-0.1,0.6-0.4,1.2-0.8,1.8c-0.4,0.5-0.9,0.9-1.4,1.2c-1.4,0.6-2.9,0.6-4.3,0  c-0.6-0.3-1-0.7-1.4-1.2c-0.4-0.5-0.6-1.1-0.8-1.8c-0.2-0.7-0.2-1.3-0.2-2V138h0.9v5.5c0,0.6,0.1,1.2,0.2,1.7c0.1,0.5,0.3,1,0.6,1.5  c0.3,0.4,0.7,0.8,1.2,1C125.3,148,125.9,148.2,126.6,148.2z"/>
<path class="st0" d="M135.1,139.8v9.1h-0.9V138h0.7l7.6,9.3V138h0.9v10.9h-0.8L135.1,139.8z"/>
<path class="st0" d="M154.4,138.9h-4v10h-0.9v-10h-4V138h8.9L154.4,138.9z"/>
<path class="st0" d="M154.2,148.9l4.7-10.9h0.7l4.6,10.9h-0.9l-1.5-3.5h-5.2l-1.5,3.5H154.2z M159.2,139.2l-2.4,5.4h4.7L159.2,139.2  z"/>
<path class="st0" d="M167.1,139.8v9.1h-0.9V138h0.7l7.6,9.3V138h0.9v10.9h-0.8L167.1,139.8z"/>
<path class="st0" d="M186.4,138.9h-4v10h-0.9v-10h-4V138h8.9L186.4,138.9z"/>
<path class="st0" d="M194.8,140c-0.8-0.8-1.9-1.2-3-1.2c-0.8-0.1-1.6,0.1-2.3,0.6c-0.5,0.4-0.7,1-0.7,1.6c0,0.3,0.1,0.6,0.2,0.8  c0.1,0.2,0.3,0.4,0.6,0.6c0.3,0.2,0.7,0.3,1,0.4c0.4,0.1,0.9,0.2,1.4,0.4c0.5,0.1,1.1,0.2,1.6,0.4c0.4,0.1,0.8,0.3,1.2,0.6  c0.3,0.2,0.6,0.5,0.8,0.8c0.2,0.4,0.3,0.8,0.3,1.2c0,0.4-0.1,0.9-0.3,1.3c-0.2,0.4-0.5,0.7-0.8,0.9c-0.4,0.3-0.8,0.4-1.2,0.5  c-2.1,0.5-4.3,0-5.9-1.4l0.5-0.8c0.5,0.5,1,0.9,1.7,1.1c0.7,0.3,1.5,0.4,2.2,0.4c0.8,0,1.5-0.1,2.2-0.5c0.5-0.3,0.8-0.9,0.8-1.5  c0-0.3-0.1-0.6-0.2-0.9c-0.2-0.3-0.4-0.5-0.6-0.6c-0.3-0.2-0.7-0.4-1.1-0.5c-0.4-0.1-0.9-0.2-1.5-0.4c-0.5-0.1-1-0.2-1.5-0.4  c-0.4-0.1-0.8-0.3-1.1-0.5c-0.3-0.2-0.5-0.5-0.7-0.8c-0.2-0.4-0.3-0.7-0.2-1.1c0-0.5,0.1-0.9,0.3-1.3c0.2-0.4,0.5-0.7,0.8-1  c0.4-0.3,0.8-0.5,1.2-0.6c0.5-0.1,1-0.2,1.6-0.2c1.3,0,2.5,0.4,3.4,1.3L194.8,140z"/>
</svg>